<svg xmlns="http://www.w3.org/2000/svg" width="846.678" height="300" viewBox="0 0 224.016 79.373"><path d="M.882.882h222.252v77.61H.882Z" fill="#fff" opacity=".838" stroke="#666" stroke-linecap="round" stroke-linejoin="round" stroke-width="1.764"/><g fill="none" stroke="#000" stroke-width=".2"><path d="M102.605 66.014v-37.37H88.374l-8.03 7.112v7.113l8.03 7.112h18.612" stroke-width=".666674"/><path d="m89.964 32.804-5.437 4.819V41l5.435 4.817h8.455V32.804z" stroke-width=".666674"/><path d="M102.601 24.478c1.398-.009 2.776.732 3.522 1.917a4.14 4.14 0 0 1 .663 2.246v17.176a4.277 4.277 0 0 1 2.729.847 4.176 4.176 0 0 1 1.653 3.253c.035 1.455-.765 2.892-2.02 3.627a4.258 4.258 0 0 1-2.362.6V66.01c.023 1.692-1.11 3.323-2.703 3.894-1.446.558-3.188.232-4.318-.836a4.152 4.152 0 0 1-1.348-2.987V54.143H88.373a4.196 4.196 0 0 1-2.785-1.055l-8.028-7.114a4.143 4.143 0 0 1-1.401-3.108c-.02-2.37 0-7.113 0-7.113a4.162 4.162 0 0 1 1.4-3.11l8.029-7.112a4.23 4.23 0 0 1 2.784-1.053z" stroke-width=".666674"/><path d="m89.568 31.763-6.084 5.39v4.312l6.086 5.393h9.895V31.763Z" stroke-width=".666674"/><path d="M102.601 25.52c1.159-.011 2.29.676 2.803 1.716.211.416.33.88.337 1.347V46.86c.517.008 1.037-.018 1.554.016 1.124.1 2.162.859 2.587 1.907a3.117 3.117 0 0 1-.411 3.106 3.155 3.155 0 0 1-2.536 1.215h-1.195v12.908c.017 1.263-.823 2.48-2.01 2.914-1.081.425-2.387.187-3.24-.606a3.12 3.12 0 0 1-1.027-2.308V53.103h-11.09a3.163 3.163 0 0 1-2.09-.79l-8.028-7.115a3.105 3.105 0 0 1-1.05-2.331v-7.113a3.111 3.111 0 0 1 1.052-2.331l8.027-7.113a3.16 3.16 0 0 1 2.088-.79z" stroke-width=".666674"/><path d="m89.168 30.723-6.733 5.966v5.243l6.733 5.968h11.341V30.722Z" stroke-width=".666674"/><path d="M102.601 26.56a2.105 2.105 0 0 1 1.818 1.051c.17.298.265.638.275.98V47.9h2.29c.827-.008 1.633.52 1.936 1.293.31.726.15 1.62-.392 2.193-.39.43-.964.678-1.543.676h-2.291V66.01a2.089 2.089 0 0 1-1.407 1.967 2.104 2.104 0 0 1-2.158-.489 2.08 2.08 0 0 1-.62-1.478V52.062H88.372a2.104 2.104 0 0 1-1.391-.526l-8.03-7.115a2.072 2.072 0 0 1-.7-1.555v-7.112a2.076 2.076 0 0 1 .7-1.555l8.03-7.113c.38-.339.883-.526 1.391-.527z" stroke-width=".666674"/><path d="m88.768 29.682-7.38 6.538v6.18l7.382 6.54h12.785V29.682Z" stroke-width=".666674"/><path d="M102.601 27.6a1.05 1.05 0 0 1 .943.59c.07.14.102.296.103.452v-.001V48.94h3.337l.065.002c.422.023.812.322.933.729a1.041 1.041 0 0 1-.998 1.35h-3.337V66.01c.01.492-.376.95-.862 1.025a1.05 1.05 0 0 1-1.23-1.025V51.022H88.372c-.254 0-.507-.095-.696-.265l-8.03-7.114a1.036 1.036 0 0 1-.35-.777v-7.112a1.05 1.05 0 0 1 .284-.714c.022-.022.046-.041.068-.062l8.03-7.113c.177-.163.413-.251.652-.264z" stroke-width=".666674"/></g><path d="M139.935 11.733v3.623c0 .387.08.643.24.766.247.194.69.291 1.328.291a5.65 5.65 0 0 0 2.57-.59c.3-.153.537-.23.708-.23.236 0 .44.089.612.265.177.176.265.39.265.644a.793.793 0 0 1-.283.608c-.29.276-.862.531-1.719.767-.85.229-1.568.343-2.153.343-1.128 0-1.975-.24-2.542-.722-.561-.488-.842-1.085-.842-1.79v-3.975h-.655c-.438 0-.75-.082-.94-.247a.862.862 0 0 1-.274-.66c0-.265.091-.48.274-.644.19-.17.502-.256.94-.256h.655v-1.63c0-.435.083-.743.248-.926a.858.858 0 0 1 .665-.282.82.82 0 0 1 .646.282c.172.183.257.491.257.926v1.63h3.358c.437 0 .747.086.93.256a.822.822 0 0 1 .283.652.839.839 0 0 1-.283.652c-.183.165-.493.247-.93.247zm-5.723 2.344c0 .694-.195 1.367-.585 2.019-.383.646-.96 1.163-1.727 1.551a5.272 5.272 0 0 1-4.767.009c-.756-.382-1.332-.899-1.727-1.551-.396-.653-.594-1.334-.594-2.045 0-.723.201-1.431.603-2.124a4.24 4.24 0 0 1 1.727-1.649c.756-.4 1.545-.599 2.366-.599.826 0 1.62.206 2.383.617.768.405 1.347.955 1.736 1.648.39.688.585 1.396.585 2.124zm-1.816.008c0-.582-.21-1.116-.63-1.604-.572-.658-1.325-.987-2.258-.987-.821 0-1.507.261-2.056.784-.549.523-.824 1.128-.824 1.816 0 .564.278 1.093.833 1.587.555.487 1.237.731 2.047.731.815 0 1.5-.244 2.055-.731.555-.494.833-1.026.833-1.596zm-12.882-7.588v9.626h2.18c.437 0 .747.085.93.255a.822.822 0 0 1 .283.652.839.839 0 0 1-.283.652c-.183.165-.493.247-.93.247h-6.175c-.437 0-.75-.082-.94-.247a.862.862 0 0 1-.274-.66c0-.265.092-.48.275-.644.189-.17.502-.255.939-.255h2.18V8.304h-1.463c-.43 0-.74-.082-.93-.246a.85.85 0 0 1-.283-.661c0-.265.091-.48.274-.644.19-.17.502-.255.94-.255zm-12.846 7.765v1.86h1.834c.437 0 .747.085.93.256a.822.822 0 0 1 .284.652.839.839 0 0 1-.283.652c-.184.165-.494.247-.93.247h-3.934c-.437 0-.75-.082-.94-.247a.862.862 0 0 1-.274-.66c0-.265.095-.48.284-.644.189-.17.499-.256.93-.256h.283V9.054h-.283c-.437 0-.75-.083-.94-.247a.862.862 0 0 1-.274-.661c0-.27.092-.488.275-.653.189-.17.502-.255.939-.255l4.181.008c1.229 0 2.2.335 2.915 1.004.72.664 1.081 1.475 1.081 2.433 0 .529-.121 1.028-.363 1.499-.183.352-.49.702-.922 1.048-.425.341-.862.6-1.31.776-.444.17-1.031.256-1.764.256zm0-1.806h1.684c.79 0 1.417-.177 1.878-.53.466-.358.7-.787.7-1.286 0-.423-.19-.793-.567-1.11-.372-.318-.907-.477-1.604-.477h-2.09zm-9.187-5.959V8.41H95.32V6.497Zm.248 3.429v6.196h2.18c.437 0 .747.085.93.256a.822.822 0 0 1 .283.652.84.84 0 0 1-.283.652c-.183.165-.493.247-.93.247h-6.175c-.437 0-.75-.082-.94-.247a.862.862 0 0 1-.274-.66c0-.265.092-.48.275-.644.189-.17.502-.256.939-.256h2.18v-4.39H94.45c-.43 0-.74-.081-.93-.246a.849.849 0 0 1-.283-.66c0-.265.091-.48.274-.644.19-.17.502-.256.94-.256zm-12.837 4.337v1.86h1.834c.437 0 .747.085.93.255a.822.822 0 0 1 .284.652.839.839 0 0 1-.284.652c-.183.165-.493.247-.93.247h-3.933c-.437 0-.75-.082-.94-.247a.861.861 0 0 1-.274-.66c0-.265.094-.48.283-.644.19-.17.5-.256.93-.256h.284V9.054h-.283c-.437 0-.75-.083-.94-.247a.861.861 0 0 1-.274-.661c0-.27.091-.488.275-.652.189-.17.502-.256.939-.256l4.181.008c1.229 0 2.2.335 2.915 1.005.72.664 1.08 1.474 1.08 2.432 0 .53-.12 1.029-.363 1.499-.183.352-.49.702-.921 1.049-.425.34-.862.599-1.311.775-.443.17-1.03.256-1.763.256zm0-1.807h1.683c.792 0 1.418-.177 1.879-.53.466-.358.7-.786.7-1.286 0-.423-.19-.793-.567-1.11-.373-.318-.907-.477-1.604-.477h-2.09z" stroke="#000" stroke-width=".667" style="font-variant-ligatures:normal;font-variant-caps:normal;font-variant-numeric:normal;font-variant-east-asian:normal"/><g fill="none" stroke="#000" stroke-width=".2"><path d="M121.415 66.014v-37.37h14.23l8.03 7.112v7.113l-8.03 7.112h-18.611" stroke-width=".666674"/><path d="m134.052 32.804 5.437 4.819V41l-5.435 4.817h-8.455V32.804z" stroke-width=".666674"/><path d="M121.415 24.478c-1.398-.009-2.776.732-3.522 1.917a4.137 4.137 0 0 0-.663 2.246v17.176a4.277 4.277 0 0 0-2.729.847 4.176 4.176 0 0 0-1.653 3.253c-.035 1.455.765 2.892 2.02 3.627.707.429 1.538.63 2.362.6V66.01c-.023 1.692 1.11 3.323 2.703 3.894 1.446.558 3.188.232 4.318-.836a4.152 4.152 0 0 0 1.348-2.987V54.143h10.044a4.196 4.196 0 0 0 2.785-1.055l8.028-7.114a4.143 4.143 0 0 0 1.401-3.108c.02-2.37 0-7.113 0-7.113a4.16 4.16 0 0 0-1.401-3.11l-8.028-7.112a4.23 4.23 0 0 0-2.784-1.053z" stroke-width=".666674"/><path d="m134.452 31.763 6.084 5.39v4.312l-6.086 5.393h-9.896V31.763Z" stroke-width=".666674"/><path d="M121.418 25.52c-1.159-.011-2.29.676-2.803 1.716-.211.416-.33.88-.336 1.347V46.86c-.518.008-1.037-.018-1.554.016-1.125.1-2.163.859-2.587 1.907a3.117 3.117 0 0 0 .41 3.106 3.155 3.155 0 0 0 2.536 1.215h1.195v12.908c-.017 1.263.824 2.48 2.01 2.914 1.081.425 2.388.187 3.24-.606a3.12 3.12 0 0 0 1.027-2.308V53.103h11.09a3.163 3.163 0 0 0 2.09-.79l8.028-7.115a3.105 3.105 0 0 0 1.05-2.331v-7.113a3.111 3.111 0 0 0-1.051-2.331l-8.028-7.113a3.16 3.16 0 0 0-2.088-.79Z" stroke-width=".666674"/><path d="m134.848 30.723 6.733 5.966v5.243l-6.733 5.968h-11.342V30.722Z" stroke-width=".666674"/><path d="M121.415 26.56a2.105 2.105 0 0 0-1.818 1.051 2.098 2.098 0 0 0-.275.98V47.9h-2.29c-.827-.008-1.633.52-1.936 1.293a2.077 2.077 0 0 0 .392 2.193c.39.43.964.678 1.543.676h2.291V66.01a2.089 2.089 0 0 0 1.407 1.967 2.104 2.104 0 0 0 2.158-.489 2.08 2.08 0 0 0 .62-1.478V52.062h12.137a2.104 2.104 0 0 0 1.39-.526l8.03-7.115a2.072 2.072 0 0 0 .701-1.555v-7.112a2.078 2.078 0 0 0-.7-1.555l-8.03-7.113a2.108 2.108 0 0 0-1.391-.527Z" stroke-width=".666674"/><path d="m135.248 29.682 7.38 6.538v6.18l-7.382 6.54h-12.785V29.682Z" stroke-width=".666674"/><path d="M121.415 27.6a1.05 1.05 0 0 0-.943.59c-.07.14-.102.296-.104.452l.001-.001V48.94h-3.337l-.065.002a1.05 1.05 0 0 0-.933.729 1.041 1.041 0 0 0 .998 1.35h3.337V66.01c-.01.492.376.95.862 1.025a1.05 1.05 0 0 0 1.23-1.025V51.022h13.183c.254 0 .507-.095.696-.265l8.03-7.114c.222-.192.35-.484.35-.777v-7.112a1.05 1.05 0 0 0-.284-.714c-.022-.022-.046-.041-.068-.062l-8.03-7.113a1.053 1.053 0 0 0-.652-.264Z" stroke-width=".666674"/></g></svg>